<svg viewBox="0 0 1436 184" xmlns="http://www.w3.org/2000/svg" xmlns:xlink="http://www.w3.org/1999/xlink"><title>Group 70</title><defs><path id="a" d="M147.18 63.282H.516V.796H147.18v62.486z"/><path id="c" d="M93.457 183.287H.75V.29h92.707v182.997z"/><path id="e" d="M89.015 165.286H.107V.054h88.908v165.232z"/><path id="g" d="M73.938 182.285H.368V.417h73.57v181.868z"/><path id="i" d="M78.184 147.284H.226V.485h77.958v146.8z"/><path id="k" d="M66.806 159.288H.95V.31h65.856v158.978z"/><path id="m" d="M73.134 131.285H.93V.687h72.204v130.598z"/><path id="o" d="M61.442 139.286H.18V.197h61.262v139.09z"/><path id="q" d="M66.085 116.29H.319V.245h65.766v116.047z"/><path id="s" d="M60.433 102.293H.536V.381h59.897v101.912z"/><path id="u" d="M57.185 122.284H.308V.712h56.877v121.572z"/><path id="w" d="M51.675 105.281H.745V.491h50.93v104.79z"/><path id="y" d="M52.464 90.287H.568V.067h51.896v90.22z"/><path id="A" d="M46.143 75.29H.286V.595h45.857V75.29z"/><path id="C" d="M51.77 68.295H.889V.68h50.883v67.616z"/><path id="E" d="M39.95 77.296H.707V.308h39.241v76.988z"/><path id="G" d="M43.322 47.284H.461V.312h42.861v46.972z"/><path id="I" d="M.43 91.287h32.077V.811H.431v90.476z"/><path id="K" d="M40.107 39.28H.91V.853h39.197V39.28z"/><path id="M" d="M46.212 57.287H.287V.057h45.925v57.23z"/><path id="O" d="M35.509 28.274H.183V.134H35.51v28.14z"/></defs><g style="mix-blend-mode:luminosity" fill="none" fill-rule="evenodd"><g transform="translate(0 120)"><mask id="b" fill="#fff"><use xlink:href="#a"/></mask><path d="M33.943 119.72V29.873c3.314 3.002 5.463 2.863 8.156.612 5.236-4.374 11.9-4.265 18.31-4.609 1.902-.102 2.674.879 2.959 2.756 2.18 14.322 5.107 28.692 3.756 43.192-1.891 20.332-.686 40.633-.808 60.947-.013 2.085-.553 4.409 2.206 7.23V23.022c3.87 3.241 2.46 7.32 4.883 9.682 2.3-1.593 1.863-4.55 2.565-6.919 1.616-5.464 4.942-8.969 10.457-10.016 4.334-.824 8.748-1.251 13.137-1.761 2.451-.285 3.758.828 3.67 3.443-.058 1.787.012 3.576.012 5.364 0 37.784-.043 75.568.099 113.35.01 2.483-1.989 7.048 2.03 7.11 2.907.045 1.605-4.463 1.61-6.899.094-39.347.056-78.697.092-118.044.002-2.42-.46-4.895.878-7.296 2.323 18.238 2.81 36.616 3.626 55.276 2.284-2.95 2.104-6.072 2.126-9.152.082-11.85.409-23.703.154-35.544-.156-7.287 2.59-12.312 8.761-15.977 4.112-2.442 8.512-3.791 13.06-4.679 4.66-.91 8.478 2.069 8.629 6.835.275 8.712.303 17.433.221 26.152-.038 4.096-1.785 7.804-3.637 11.381-1.151 2.224-1.89 4.477-1.815 7.035.063 2.094.17 3.958 2.364 5.068 2.723 1.377 3.016 3.93 3.418 6.741.792 5.565.806 11.122.867 16.7.192 17.188.05 34.382 1.345 51.544.39 5.164-.29 10.2-2.32 15.073-3.933 9.447-3.55 19.143-1.21 28.904 1.038 4.33 1.982 8.687 2.882 13.047 1.33 6.43-.76 10.385-6.955 12.31-3.78 1.175-7.74 1.803-11.654 2.463-6.872 1.158-9.61 4.256-9.42 13.61.07 3.509 1.241 6.996 1.907 10.494.783 4.121.431 8.058-2.206 11.47-2.185 2.831-5.199 2.765-7.098-.291-1.914-3.08-2.582-6.562-2.55-10.244.085-9.996.031-19.993.031-30.362-2.025.865-2.201 2.57-3.018 3.75-2.416 3.485-5.586 5.49-9.904 5.952-6.784.728-9.839 3.746-10.846 10.428-.397 2.644-.41 5.33.434 7.968.61 1.904 1.185 3.855 1.463 5.828.578 4.103-1.964 8.002-6.344 9.943-4.02 1.78-5.468-1.852-7.475-3.91-2.084-2.139-2.8-4.959-2.754-8.015.06-4.247.117-8.51-.18-12.738-.355-5.01-3.044-7.283-7.891-6.887-7.227.585-12.385 5.649-11.175 13.473.476 3.082.96 6.172 1.224 9.276.48 5.656-1.935 9.955-6.617 12.918-3.843 2.43-7.286 1.156-9.123-3.063-.933-2.144-.81-4.365-.829-6.593-.079-10.283-.14-20.567-.212-30.85-.032-4.513-.756-8.889-2.605-13.031-.472-1.056-1.253-1.978-2.486-1.834-1.415.161-1.494 1.438-1.501 2.555-.034 5.14-.156 10.287.004 15.424.113 3.552-1.083 5.164-4.822 5.594-6.08.699-7.098 2.13-7.109 8.19-.007 3.562.1 7.088 1.043 10.622 1.632 6.115-.8 10.977-5.612 14.654-3.251 2.488-7.15 1.175-8.55-2.696-.225-.617-.212-1.32-.32-1.98-1.74-10.535-.45-21.318-2.576-31.83-.35-1.733.052-3.553.69-5.265 1.041-2.804 1.265-5.862.574-8.605C-.206 189.547.711 180.825.7 172.16c-.057-41.36.059-82.719.12-124.08.009-6.414.009-6.46 6.09-8.407 4.43-1.416 8.85-2.93 13.372-3.974 8.28-1.914 11.66.785 11.44 8.726-.247 8.748-.292 17.367-4.663 25.373-2.18 4.001-1.591 8.27 1.034 12.04 3.472 4.988 4.495 10.266 3.734 16.415-.738 5.943-.214 12.053-.099 18.087.023 1.204.704 2.396 1.081 3.596.38-.073.757-.144 1.134-.214M69.9 191.108c-.194-4.152-3.14-7.595-7.244-10.137-1.797-1.115-2.987-.132-3.01 1.9-.036 3.548-.198 7.128.215 10.633.316 2.674 1.46 5.298 4.903 5.244 2.933-.046 5.11-2.936 5.136-7.64" fill="#006A8C" mask="url(#b)"/></g><g transform="translate(605)"><mask id="d" fill="#fff"><use xlink:href="#c"/></mask><path d="M88.671 177.797c0 16.713-.031 33.428.034 50.141.011 2.686-1.052 5.877 3.155 7.002 1.629.436 1.217 2.668 1.224 4.194.025 6.907.014 13.817.014 20.726 0 19.39.092 38.776-.109 58.161-.03 2.75 1.905 7.944-1.882 7.89-4.318-.069-2.072-5.338-2.214-8.23-.385-7.783-.253-15.592-.197-23.393.02-2.928-.47-5.73-1.06-8.574-1.136-5.465-4.635-8.459-9.76-9.756-2.57-.649-5.221-1.125-7.859-1.327-7.738-.588-15.482-1.282-23.234-1.418-10.88-.188-21.678-1.613-32.571-1.628-7.41-.01-10.76-3.854-10.787-11.367-.098-27.41.597-54.845-.347-82.223-1.185-34.521-.01-69.058-1.348-103.54C.884 52.628 1.258 30.82.776 9.008.746 7.676.736 6.335.783 5 .955.41 1.523-.161 5.827.537 14.132 1.882 22.42 3.334 30.712 4.76c14.84 2.547 29.663 5.187 44.519 7.63 8.957 1.472 9.629-.329 9.425 8.894-.135 6.118 3.95 104.434 3.96 106.374.096 16.713.055 33.425.055 50.14" fill="#006A8C" mask="url(#d)"/></g><g transform="translate(705 18)"><mask id="f" fill="#fff"><use xlink:href="#e"/></mask><path d="M87.751 238.996c0-35.15-1.094-33.664-1.094-69.963 1.285 3.071-.002-1.973 0 0 .07 54.625 2.093 79.684 2.057 134.311 0 2.459 1.24 6.911-1.313 7.018-4.234.174-2.373-4.384-2.505-6.852-.466-8.666-1.44-17.284-1.688-25.976-.257-9.002-3.285-13.901-14.33-14.569-16.02-.967-32.014-2.318-48.075-2.61-3.772-.066-7.537-.702-11.296-1.179-4-.508-6.34-2.763-7.252-6.754-.61-2.665-.494-5.317-.503-7.978-.128-34.78.384-69.579-.487-104.341C.182 96.87.519 53.642.212 10.413.116-2.878-1.41-.324 11.314 1.672c19.35 3.03 38.618 6.602 57.919 9.939.66.116 1.338.118 1.993.247 5.498 1.09 5.737 1.301 5.717 6.943-.066 18.06-.262 36.12-.266 54.18-.005 21.404-.367 42.826.373 64.208.612 17.758 1.601 35.523 3.412 53.24 1.333 13.047 2.758 26.072 4.405 39.076.414 3.248 1.083 6.465 1.633 9.696l1.251-.204" fill="#006A8C" mask="url(#f)"/></g><g transform="translate(481 1)"><mask id="h" fill="#fff"><use xlink:href="#g"/></mask><path d="M1.122 28.763C.689 16.024 9.252 12.996 17.697 11.08 33.482 7.497 49.324 4.149 65.165.823c4.949-1.04 5.682-.325 5.716 5.038.152 25.213-.419 50.45.55 75.629 1.115 28.985.041 57.989 1.321 86.934 1.3 29.433.582 58.86 1.169 88.281.043 2.23 0 4.462-.053 6.695-.228 9.829-2.475 12.166-12.156 12.682-.444.02-.897.075-1.334.02-13.081-1.562-25.49 2.806-38.197 4.476-5.861.77-8.384 4.245-8.524 10.93-.204 9.589-.1 19.186-.127 28.78-.005 2.008-.002 4.016-.016 6.024-.011 1.642-.226 3.148-2.28 3.462-1.778.272-3.03-.5-3.87-1.979-2.141-3.755-3.079-7.771-3.08-12.14-.012-18.295.436-36.62-.42-54.88-1.397-29.873-.03-59.774-1.365-89.61-1.24-27.65-.089-55.308-1.307-82.92-.768-17.384-1.357-57.024-.07-59.482" fill="#006A8C" mask="url(#h)"/></g><g transform="translate(802 36)"><mask id="j" fill="#fff"><use xlink:href="#i"/></mask><path d="M75.07 175.388c.68-30.463 3.23 50.784 3.11 119.277-.003.312-.517.623-1.283 1.485-2.202-2.491-2.701-5.364-2.745-8.364-.09-6.023-.148-12.05-.134-18.073.007-3.58-.241-7.107-.934-10.632-1.038-5.293-2.91-7.647-8.072-8.206-9.968-1.082-19.883-2.696-29.944-2.948-8.25-.21-16.5-.712-24.734-1.284-6.255-.434-8.54-3.012-8.738-9.437-.12-4.013-.05-8.034-.141-12.05C-.16 152.893.49 80.618.229 8.345.198-.244.24-.273 9.031 1.245 26.816 4.318 44.6 7.384 62.367 10.55c5.162.918 5.2 1.075 5.21 6.304.045 27-.333 54.007.218 80.996.353 17.33 1.248 34.672 3.405 51.936 1.071 8.564 2.228 17.089 3.87 25.602" fill="#006A8C" mask="url(#j)"/></g><g transform="translate(412 24)"><mask id="l" fill="#fff"><use xlink:href="#k"/></mask><path d="M18.227 8.785C31.42 5.76 44.717 3.172 58.002.567c3.94-.771 4.61.009 4.62 4.91.045 24.279.023 48.558.023 72.837 0 5.57-.114 11.14.029 16.705.084 3.173 2.303 24.933 2.47 34.355.21 11.8.193 23.61.148 35.415-.102 26.268 1.915 52.495 1.442 78.77-.041 2.225.102 4.458-.007 6.68-.268 5.309-1.852 7.334-6.938 8.161-8.974 1.459-17.986 2.694-26.985 4-3.513.51-7.043.898-10.55 1.44-7.531 1.164-10.424 4.418-10.496 12.07-.09 9.58-.023 19.158-.027 28.736 0 1.56.016 3.118-.048 4.676-.068 1.603-.313 3.22-2.226 3.621-1.566.331-2.452-.873-3.203-1.945-2.785-3.976-3.67-8.45-3.667-13.264.016-19.823-.086-39.646-.15-59.472-.079-25.837.474-51.697-.39-77.51C.585 117.118 1.31 59.18.95 15.548c-.018-2.173 10.506-5.209 17.277-6.762" fill="#006A8C" mask="url(#l)"/></g><g transform="translate(888 52)"><mask id="n" fill="#fff"><use xlink:href="#m"/></mask><path d="M72.237 221.722c.622 18.276.506 36.536.886 54.801.032 1.56-.014 3.123-.046 4.683-.036 1.906-1.034 2.814-2.934 2.819-1.809.009-3.07-.804-3.352-2.583-.273-1.75-.295-3.55-.325-5.33-.132-8.233-.154-16.446-1.32-24.651-1.353-9.524-4.914-13.326-14.61-14.084-12.424-.974-24.852-1.883-37.284-2.78-6.736-.488-9.629-2.973-10.836-9.56-.238-1.308-.275-2.661-.309-3.997-.395-15.364-1.064-30.729-1.102-46.093-.132-54.868-.05-109.735-.05-164.6 0-1.338-.016-2.678.002-4.016C1.043.13 1.05.113 7.35 1.29 22 4.02 36.648 6.756 51.29 9.513c5.275.993 5.277 1.025 6.116 6.641.295 1.978.793 3.968.763 5.946-.304 19.626 1.316 39.192 1.812 58.792.62 24.481 2.23 48.937 2.58 73.437.015 1.099.138 2.241.47 3.282.368 1.149 1.368 1.723 2.602 1.669 1.375-.064 1.914-.993 1.968-2.212.078-1.78.089-3.566.089-5.349.009-30.554 3.423 37.043 4.548 70.003" fill="#006A92" mask="url(#n)"/></g><g transform="translate(349 44)"><mask id="p" fill="#fff"><use xlink:href="#o"/></mask><path d="M1.07 22.625c1.68 2.394 1.921 4.977 1.87 7.588-.338 17.389 1.444 34.706 1.754 52.083.336 18.681 1.587 37.346 2.453 56.018.04.876.085 1.811.423 2.592.205.477.985.999 1.478.972.515-.028 1.323-.613 1.431-1.09.293-1.28.371-2.63.376-3.954.09-29.208-1.48-99.038-1.45-104.885.075-13.721 5.891-22.326 18.932-26.353C35.065 3.52 41.984 2.001 48.882.56c5.121-1.07 6.298.087 7.682 5.475.68 2.64.803 5.269.823 7.943.106 14.048-.355 28.13.45 42.135 1.382 24.055.117 48.147 1.375 72.162 1.118 21.391.281 42.78 1.201 64.142.583 13.575.993 27.142 1.029 40.727.024 8.946-1.37 10.896-10.204 12.512-8.008 1.468-16.117 2.358-24.174 3.568-2.392.358-4.813.735-7.117 1.439-5.503 1.682-8.696 6.326-8.79 12.707-.131 8.69 1.734 17.28 1.363 25.994-.104 2.438.223 4.891-.95 7.206-1.066 2.111-2.272 2.606-3.975.7-2.676-3.001-3.204-6.61-3.477-10.51-1.712-24.485-.369-49.022-1.302-73.504C1.54 179.838 2.526 146.39 1.31 113 .27 84.473.827 55.96.273 27.45c-.03-1.503-.457-3.104.797-4.826" fill="#006A92" mask="url(#p)"/></g><g transform="translate(964 67)"><mask id="r" fill="#fff"><use xlink:href="#q"/></mask><path d="M65.174 270.75c-1.995-4.601-2.444-8.262-2.467-12.028-.034-6.004.032-12.015-.217-18.013-.333-8.072-3.214-11.221-11.3-12.048a840.346 840.346 0 0 0-31.184-2.601c-3.59-.233-7.05-1.01-10.513-1.692-4.785-.944-7.074-4.344-6.635-9.317 2.05-23.087 1.168-46.229.447-69.305-.42-13.542-.342-27.098-.98-40.628C.836 73.576 1.096 42.009.87 10.449a33.929 33.929 0 0 0-.294-3.98C-.2.42.535-.441 6.216.645a3349.766 3349.766 0 0 1 37.873 7.481c8.91 1.814 11.422 4.836 11.694 13.995.165 5.556.106 11.121.133 16.68.091 18.238-.301 36.496.42 54.709.49 12.43.251 24.883 1.09 37.283.598 8.846 2.267 17.59 5.157 26.038.335.983.353 2.257 2.561 2.373 0-27.217 2.097 105.496.03 111.546" fill="#006A8C" mask="url(#r)"/></g><g transform="translate(1036 81)"><mask id="t" fill="#fff"><use xlink:href="#s"/></mask><path d="M60.433 152.5c0 32.642.002 65.287-.007 97.93 0 1.993-.047 3.992-.153 5.986-.051.97-.63 1.648-1.626 1.747-1.35.134-2.043-.644-2.129-1.91-.108-1.549-.133-3.104-.135-4.657-.016-7.106.07-14.212-.031-21.318-.11-7.533-3.283-10.83-10.524-11.951-10.712-1.657-21.548-1.345-32.307-2.336-9.576-.881-13.118-3.68-12.53-13.12 2.108-33.942 1.244-67.916.677-101.85C1.164 70.849.842 40.676.568 10.5.547 8.5.501 6.499.58 4.503.756.069.855-.017 5.13.743a10629.42 10629.42 0 0 1 39.676 7.088c4.853.877 4.894.936 4.997 5.975.083 3.995-.079 7.997.043 11.99.493 16.402.745 32.823 1.67 49.2 1.061 18.791 2.987 37.525 3.761 56.342.423 10.253-.834 20.348-2.25 30.445-.744 5.304-.37 10.637-.52 15.957-.038 1.331.032 2.88 1.819 2.973 2.265.117 2.207-1.714 2.263-3.258.065-1.775.032-3.552.032-5.329 0-39.748 3.811-52.936 3.811-19.627" fill="#006A8C" mask="url(#t)"/></g><g transform="translate(291 61)"><mask id="v" fill="#fff"><use xlink:href="#u"/></mask><path d="M10.62 142.75c1.33-3.94 1.03-7.25 1.02-10.476-.081-28.344-.222-56.687-.33-85.03-.037-9.589.235-19.15 1.345-28.704.517-4.44 2.503-7.028 6.503-8.262C29.145 7.19 39.146 4.13 49.18 1.19c3.572-1.048 4.164-.578 4.185 3.49.057 10.712-.061 21.423-.105 32.137-.072 18.523-.145 37.045-.21 55.568-.044 12.045.052 24.075 1.43 36.07 1.476 12.894-.248 24.982-10.587 34.925 3.613.95 5.916-.87 8.442-1.19 3.74-.475 4.189-.34 4.51 3.443.114 1.327.026 2.675.033 4.013.102 18.523.2 37.046.306 55.569.045 8.19-1.266 9.965-9.64 11.56-7.413 1.417-14.915 2.367-22.356 3.67-9.236 1.615-12.163 5.126-12.188 14.43-.02 8.483.054 16.962.04 25.442-.004 1.938.489 4.225-2.146 5-2.353.693-6.372-1.273-7.12-3.725-.974-3.193-1.315-6.512-1.326-9.9-.127-39.723.25-79.462-.665-119.168C.834 111.254 1.093 69.987.76 28.72c-.02-2.566-1.745-7.004 1.683-7.334 2.56-.247.942 4.507 1.959 6.862.501 1.161.336 2.634.372 3.97.592 20.955.849 41.923 1.86 62.857.656 13.593 1.015 27.18 1.294 40.775.045 2.195-.14 4.498 2.691 6.9" fill="#006A8C" mask="url(#v)"/></g><g transform="translate(240 78)"><mask id="x" fill="#fff"><use xlink:href="#w"/></mask><path d="M2.652 25.648c2.252 35.63 2.964 71.271 5.415 106.948 2.754-.826 2.064-2.98 2.055-4.542-.086-17.2.052-34.39-.696-51.597-.803-18.524-.49-37.108-.355-55.662C9.127 13.38 12.528 9.49 19.814 7.39a795.852 795.852 0 0 1 23.111-6.254c5.442-1.39 6.014-.89 6.048 5.063.156 27.053-.276 54.124.524 81.159.948 31.956.392 63.92 1.348 95.86.314 10.484.714 20.972.827 31.463.09 8.483-2.403 11.75-10.608 13.685-6.03 1.422-12.213 2.19-18.245 3.603-8.465 1.986-10.974 5.307-11.05 14.129-.067 7.602.105 15.205.017 22.807-.054 4.656-1.558 5.51-5.715 3.672-4.113-1.814-5.04-5.33-5.051-9.352-.027-8.273-.039-16.547-.045-24.82-.061-68.869-.563-137.736.14-206.603.022-2.074-.509-4.312 1.537-6.154" fill="#006A8C" mask="url(#x)"/></g><g transform="translate(1103 93)"><mask id="z" fill="#fff"><use xlink:href="#y"/></mask><path d="M1.257.068c12.49 2.116 24.736 4.734 36.956 7.503 2.664.604 4.239 2.153 4.822 4.843.708 3.264 1.255 6.515 1.248 9.894-.033 16.268-.013 32.532.122 48.798.12 14.685 1.8 29.245 3.573 43.808 1.015 8.331 2.133 16.626 4.486 24.885 0-28.669-51.84 67.876-51.84 57.678 0-63.06-.006-126.12.018-189.178 0-2.633-.389-5.323.615-8.231" fill="#006A8C" mask="url(#z)"/></g><g transform="translate(147 108)"><mask id="B" fill="#fff"><use xlink:href="#A"/></mask><path d="M30.48 88.899c11.605 5.251 13.356 15.359 13.034 26.673-.284 9.999-.192 20.023.146 30.021.503 14.852.857 29.72 2.375 44.522.135 1.323.107 2.668.103 4-.03 9.89-4.992 15.216-14.978 16.013-2.01.159-4.053-.02-6.055.195-6.896.74-10.837 5-11.107 11.93-.105 2.673.35 5.282.782 7.93.908 5.568.864 11.017-3.218 15.766-1.996 2.324-3.506 2.312-5.458.258-1.74-1.823-3.123-3.78-3.116-6.431.005-2.67.007-5.34-.075-8.008-1.875-61.12-.869-122.267-1.705-183.396-.13-9.53-.78-19.074-.752-28.622.006-2.108-.741-4.407.848-6.314 2.185-.147 1.821 1.486 2.048 2.673 1.65 8.585.905 17.284 1.168 25.933.55 18.206 1.16 36.414 1.764 54.615.354 10.645.665 21.3 1.001 31.95.05 1.631-.306 3.407 1.283 5.366 1.597-2.195 1.145-4.199 1.145-6.026.018-34.918 0-69.835-.014-104.752-.002-2.002-.06-4.004-.016-6.006.165-7.394 2.88-11.353 9.85-13.21C24.916 2.545 30.448 1.522 35.98.78c4.258-.573 4.69.005 4.832 4.154.128 3.777.03 7.561.034 11.341.021 19.128-.157 38.258.188 57.379.107 5.992-.871 10.467-7.358 12.207-1.243.332-2.475.978-3.195 3.037" fill="#006A8C" mask="url(#B)"/></g><g transform="translate(1219 115)"><mask id="D" fill="#fff"><use xlink:href="#C"/></mask><path d="M50.776 192.854c-.031 4.204 1.35 8.316.907 12.561-.12 1.163-.332 2.265-1.66 2.496-1.15.198-2.337-.188-2.916-1.188a18.83 18.83 0 0 1-1.78-4.254c-1.666-5.937-5.692-8.375-11.679-9.055-6.414-.725-12.817-.949-19.242-1.095-1.999-.048-3.961-.183-5.897-.85-4.15-1.422-5.602-3.061-5.84-7.767-.214-4.205-.117-8.425-.124-12.638-.065-43.475-.126-86.95-.187-130.422-.003-1.108.095-2.228-.014-3.326C1.974 33.606 2.74 12.827.888.68c10.4 1.935 19.733 3.468 28.962 5.465 5.458 1.18 6.959 3.725 7.54 9.468 1.051 10.38 1.047 20.785 1.15 31.195.285 28.144 1.845 56.266 1.588 84.422-.036 3.848.208 7.725 3.28 12.099 3.453-27.79 7.567 20.93 7.368 49.526" fill="#006A8C" mask="url(#D)"/></g><g transform="translate(1163 106)"><mask id="F" fill="#fff"><use xlink:href="#E"/></mask><path d="M12.366 74.22c-1.116-.393-1.34-.555-1.537-.528-8.902 1.165-8.904 1.167-8.904-8.273 0-19.07 0-38.138.002-57.21 0-1.552.064-3.105.023-4.656C1.877.843 3.41-.013 5.8.411c8.775 1.556 17.534 3.208 26.308 4.786 3.163.568 4.564 2.539 4.678 5.554.093 2.436.1 4.878.114 7.316.105 17.073-.3 34.168.433 51.214.868 20.152.325 40.34 1.469 60.447 1.148 20.163.615 40.312 1.139 60.462.034 1.327-.037 2.661-.14 3.986-.222 2.905-1.862 4.347-4.778 4.49-9.453.453-18.707-1.034-27.882-2.994-3.166-.677-4.622-3.15-5.125-6.297-1.087-6.812-1.743-13.7-.975-20.517 1.592-14.157.565-28.343 1.125-42.502.308-7.736-.107-15.464.788-23.222.52-4.503-.647-9.23-1.305-13.82-.998-6.952-.089-9.067 5.886-12.415 1.34-.751 2.685-1.49 4.831-2.679" fill="#006A92" mask="url(#F)"/></g><g transform="translate(1319 136)"><mask id="H" fill="#fff"><use xlink:href="#G"/></mask><path d="M.46.946c6.521-1.725 18.183.469 24.361 1.839 5.328 1.18 7.443 3.786 7.614 9.427.246 8.023 1.116 15.996 1.481 24.012.936 20.684 1.83 41.377 3.564 62.022.52 6.173.079 12.432.632 18.675 1.589-1.581 1.145-3.475 1.152-5.216.074-21.431.05-42.863.169-64.295.013-2.489-1.139-6.886 1.773-6.925 3.368-.043 1.705 4.284 1.71 6.575.117 52.464.09 104.927.085 157.39 0 1.79-.004 3.576-.087 5.358-.072 1.561-.903 2.443-2.518 2.407-1.634-.035-2.374-1.016-2.408-2.541-.067-2.9-.058-5.803-.067-8.705-.011-4.016.115-8.04-.052-12.05-.189-4.55-2.657-7.473-6.977-8.666-3.843-1.063-7.774-1.736-11.777-1.518-4.02.218-7.89-.816-11.83-1.248-2.612-.286-3.816-1.809-4.088-4.397-1.251-11.785-2.574-23.866.465-35.22 2.014-7.53-.042-13.944-.783-20.794-.36-3.32-.792-6.62-.807-9.961-.077-17.637-.288-35.275-.11-52.91.078-7.83-1.015-15.56-1.108-23.36C.782 24.686 1.604 1.57.461.945" fill="#006A8C" mask="url(#H)"/></g><g transform="translate(207 92)"><mask id="J" fill="#fff"><use xlink:href="#I"/></mask><path d="M.432 112.166c0-30.944 0-61.888.002-92.834 0-1.558.084-3.119.009-4.673-.18-3.813 1.634-6.247 4.973-7.898 6.052-2.99 12.693-3.963 19.08-5.802 2.406-.692 3.256 1.173 3.623 2.903.784 3.682 1.655 7.359 1.655 11.18.002 15.14.036 30.278.142 45.416.03 4.37.034 31.46.268 37.593 1.09 28.91.968 57.83 1.446 86.744.097 5.968.977 11.945.868 17.953-.027 1.556.068 3.133-.143 4.666-1.217 8.83-4.476 11.764-13.536 12.444-3.538.266-7.081.03-10.63.687-3.734.69-5.051-.444-6.16-4.318-.983-3.446-1.26-6.97-1.255-10.557.038-31.169.023-62.335.023-93.504H.432z" fill="#006A8C" mask="url(#J)"/></g><g transform="translate(1366 144)"><mask id="L" fill="#fff"><use xlink:href="#K"/></mask><path d="M17.44 115.607c-1.853-.881-2.821-1.437-3.855-1.822C3.132 109.888.85 103.981 1.405 94.606c.727-12.3.21-24.563.606-36.834.028-.893-.002-1.788.007-2.683.066-6.717.12-6.847 6.508-4.248 3.043 1.239 5.122.943 6.596-2.137.574-1.202 1.412-2.28 2.034-3.464 1.66-3.153-6.132-3.752-9.603-4.187-4.856-.608-1.606-35.65-2.786-40.2 7.651.897 14.298 1.9 20.667 4.298 1.772.667 2.703 2.426 3.159 4.15.736 2.793 1.61 5.667 1.624 8.51.08 14.528 1.241 29.012 1.813 43.512.629 15.99.77 32.058 3.011 48.77 1.36-2.925.918-5.303.925-7.562.057-20.799-.009-41.6.107-62.396.014-2.706-1.314-7.555 1.734-7.594 3.774-.048 1.765 4.647 1.772 7.12.134 52.779.104 105.557.1 158.336 0 1.788.002 3.578-.07 5.364-.049 1.203-.538 2.246-1.896 2.287-1.376.04-1.918-.991-1.968-2.194-.198-4.906-1.587-9.696-1.28-14.66.137-2.225-.011-4.473-.16-6.705-.248-3.777-2.202-6.04-5.924-7.148-4.387-1.303-8.845-1.066-13.298-1.273-2.225-.105-4.512.004-6.658-.485-4.715-1.075-7.3-4.018-7.407-9.08-.214-10.058-.043-20.126-.04-30.19 0-3.74 2.152-6.106 4.908-8.293 3.767-2.995 8.018-5.485 11.555-10.013" fill="#006A8C" mask="url(#L)"/></g><g transform="translate(1273 126)"><mask id="N" fill="#fff"><use xlink:href="#M"/></mask><path d="M40.609 138.506V48.011c2.327 1.07 2.512 2.703 2.51 4.205-.01 5.807 1.028 11.519 1.43 17.28 1.925 27.576 1.655 55.2 1.616 82.814-.013 9.583.238 19.186-.306 28.742-.67 11.739-1.268 23.518-3.783 35.078-.187.857-.283 1.742-1.66 2.657-1.547-5.537-.785-10.904-.5-16.23.073-1.323.533-2.648.462-3.955-.42-7.926-4.523-11.97-12.775-12.66-6.018-.501-12.048-.93-18.073-1.411-5.584-.443-6.254-.928-7.186-6.73-1.212-7.517-.542-15.116-.558-22.68-.007-3.825 3.193-4.481 6.014-5.169 6.208-1.516 10.994-4.87 14.16-10.4 3.824-6.68 2.743-18.471-2.149-24.033-2.119-2.41-6.217-2.875-9.927-1.003-2.55 1.286-4.624 3.454-7.319 4.234-1.39-1.096-1.824-2.457-1.858-3.717-.233-8.907-.512-17.818-.39-26.722.054-4.05 3.412-6.139 6.662-7.716 2.608-1.264 5.53-1.593 8.487-1.797 4.622-.32 6.213-2.04 6.437-6.068.262-4.66-1.671-7.461-5.973-8.285-1.746-.333-3.577-.304-5.37-.302-2.966.005-5.773-.524-8.628-2.192 1.657-3.177 3.047-58.464.62-61.4 2.313-1.278 4.347.288 6.475.653 5.511.953 11.015 1.952 16.492 3.068 6.036 1.23 7.485 2.594 8.315 8.76.622 4.613 1.374 9.224 1.314 13.937-.105 8.466-.016 16.937.167 25.404.428 20.253.681 40.517 1.596 60.752.32 7.091.998 14.19 1.181 21.308.041 1.518-.013 3.122 2.517 4.073" fill="#006A8C" mask="url(#N)"/></g><g style="mix-blend-mode:hue" transform="translate(1409 155)"><mask id="P" fill="#fff"><use xlink:href="#O"/></mask><path d="M10.406 93.485C6.83 92.962 4.33 95.908.967 95.211c-1.062-3.01-.461-6.158-.475-9.23C.447 75.888.663 65.79.535 55.698.459 49.66 2.621 45.095 8.196 42.852c4.453-1.79 5.758-4.941 5.684-9.465-.146-8.971-.106-17.95.036-26.92.04-2.383-1.312-5.715 2.94-6.248 4.012-.5 7.322 1.237 8.46 4.805.401 1.25.464 2.642.507 3.975.522 17.243 1.368 34.473 1.426 51.737.057 16.8 1.573 33.572 1.321 50.393-.018 1.113.009 2.265.27 3.335.13.528.779 1.154 1.31 1.307 1.012.29 1.719-.478 1.818-1.383.195-1.778.211-3.58.213-5.371.012-21.088-.029-42.176.066-63.264.009-1.986-1.233-5.593 1.428-5.625 2.844-.035 1.53 3.575 1.533 5.527.083 48.233.083 96.466 0 144.701-.003 2.176 1.338 6.048-1.904 6.13-4.223.106-2.038-4.09-2.268-6.33-.385-3.775-.018-7.62-.094-11.432-.156-7.677-4.053-11.863-11.678-12.772-3.717-.444-7.44-.869-11.124-1.52-5.042-.894-7.11-3.385-7.513-8.686-.065-.891.093-1.815-.054-2.688-1.487-8.923 1.195-15.438 9.54-19.755 4.876-2.524 4.575-3.404.3-6.928-4.883-4.028-9.329-8.405-9.882-15.258-.5-6.18.729-11.618 6.936-14.63 1.11-.538 2.588-.906 2.939-3.002" fill="#006A8C" mask="url(#P)"/></g></g></svg>